<svg xmlns="http://www.w3.org/2000/svg" version="1.1" xmlns:xlink="http://www.w3.org/1999/xlink" xmlns:svgjs="http://svgjs.com/svgjs" width="1200" height="500" preserveAspectRatio="none" viewBox="0 0 1200 500"><g mask="url(&quot;#SvgjsMask1404&quot;)" fill="none"><rect width="1200" height="500" x="0" y="0" fill="url(#SvgjsRadialGradient1405)"></rect><path d="M617.66 229.2 a154.87 154.87 0 1 0 309.74 0 a154.87 154.87 0 1 0 -309.74 0z" fill="rgba(28, 83, 142, 0.4)" class="triangle-float2"></path><path d="M692.3495883477461 128.49267668995785L672.0259310992255 204.3415981370523 747.87485254632 224.66525538557292 768.1985097948406 148.81633393847846z" fill="rgba(28, 83, 142, 0.4)" class="triangle-float2"></path><path d="M1120.942,636.561C1159.473,636.649,1194.764,615.91,1214.421,582.77C1234.499,548.921,1239.224,505.917,1218.155,472.675C1198.235,441.245,1158.153,435.462,1120.942,435.282C1083.3,435.1,1042.163,439.884,1022.084,471.724C1000.971,505.204,1007.844,548.4,1028.202,582.344C1047.942,615.258,1082.562,636.473,1120.942,636.561" fill="rgba(28, 83, 142, 0.4)" class="triangle-float2"></path><path d="M1111.1323574138023 123.48158952657181L1218.2087466177966 33.633830837705375 1128.36098792893-73.44255836628881 1021.2845987249359 16.40520032257764z" fill="rgba(28, 83, 142, 0.4)" class="triangle-float3"></path><path d="M423.85970255130854 114.95185045328726L317.0739829477385 11.830079722424031 213.95221221687527 118.61579932599408 320.7379318204453 221.7375700568573z" fill="rgba(28, 83, 142, 0.4)" class="triangle-float1"></path><path d="M993.03,337.21C1020.754,337.937,1047.933,325.053,1061.678,300.965C1075.316,277.065,1071.87,247.578,1057.599,224.051C1043.878,201.431,1019.485,188.045,993.03,187.795C966.112,187.541,939.665,199.437,926.312,222.811C913.053,246.021,916.879,274.432,930.345,297.522C943.699,320.42,966.532,336.515,993.03,337.21" fill="rgba(28, 83, 142, 0.4)" class="triangle-float3"></path><path d="M742.2105282826968 116.85556833337665L646.3225686828264 30.51766171018538 559.9846620596351 126.40562131005586 655.8726216595055 212.74352793324715z" fill="rgba(28, 83, 142, 0.4)" class="triangle-float2"></path><path d="M496.3651200015562 190.04656350090613L595.6200220706123 167.1317637998782 572.7052223695844 67.87686173082206 473.45032030052823 90.79166143184999z" fill="rgba(28, 83, 142, 0.4)" class="triangle-float2"></path><path d="M745.2088018890479 274.3701229677501L848.9104079112362 358.3460277411974 829.1847066624953 170.66851694556172z" fill="rgba(28, 83, 142, 0.4)" class="triangle-float3"></path><path d="M658.106,595.211C704.465,594.282,739.526,559.579,764.03,520.215C790.472,477.738,815.399,426.022,790.413,382.672C765.409,339.291,708.171,335.643,658.106,336.442C609.905,337.211,557.82,345.506,532.915,386.781C507.384,429.093,519.122,482.247,544.567,524.611C569.162,565.559,610.35,596.168,658.106,595.211" fill="rgba(28, 83, 142, 0.4)" class="triangle-float1"></path><path d="M931.1598277752441 523.4620792791552L984.8750613514572 568.5345119615571 1025.6260935869534 465.42544525603654z" fill="rgba(28, 83, 142, 0.4)" class="triangle-float1"></path><path d="M1007.026664229403 21.711990035171397L955.6686357422158 87.44726884328045 1079.950568197973 131.61667217000672z" fill="rgba(28, 83, 142, 0.4)" class="triangle-float2"></path><path d="M280.853,123.703C313.198,123.382,346.087,113.458,363.164,85.986C381.127,57.089,379.79,20.619,363.498,-9.252C346.451,-40.508,316.43,-66.261,280.853,-64.933C246.888,-63.665,224.817,-33.132,208.248,-3.455C192.231,25.233,179.371,59.115,195.663,87.648C212.05,116.348,247.806,124.031,280.853,123.703" fill="rgba(28, 83, 142, 0.4)" class="triangle-float2"></path><path d="M387.8689873483406 117.82268549627757L481.6978526855425 85.51481623704144 449.3899834263064-8.314049100160446 355.5611180891045 23.993820159075682z" fill="rgba(28, 83, 142, 0.4)" class="triangle-float2"></path></g><defs><mask id="SvgjsMask1404"><rect width="1200" height="500" fill="#ffffff"></rect></mask><radialGradient cx="0%" cy="50%" r="1225.77" gradientUnits="userSpaceOnUse" id="SvgjsRadialGradient1405"><stop stop-color="rgba(14, 42, 71, 1)" offset="0.1"></stop><stop stop-color="rgba(58, 124, 165, 1)" offset="1"></stop></radialGradient><style>
            @keyframes float1 {
                0%{transform: translate(0, 0)}
                50%{transform: translate(-10px, 0)}
                100%{transform: translate(0, 0)}
            }

            .triangle-float1 {
                animation: float1 5s infinite;
            }

            @keyframes float2 {
                0%{transform: translate(0, 0)}
                50%{transform: translate(-5px, -5px)}
                100%{transform: translate(0, 0)}
            }

            .triangle-float2 {
                animation: float2 4s infinite;
            }

            @keyframes float3 {
                0%{transform: translate(0, 0)}
                50%{transform: translate(0, -10px)}
                100%{transform: translate(0, 0)}
            }

            .triangle-float3 {
                animation: float3 6s infinite;
            }
        </style></defs></svg>